<svg id="AI_Logo" data-name="AI Logo" xmlns="http://www.w3.org/2000/svg" width="41.059" height="40.032" viewBox="0 0 41.059 40.032">
  <g id="Surfaces">
    <g id="Drawing_Surface">
      <g id="Outline_no_shadow">
        <path id="Path_403" data-name="Path 403" d="M7.271,0H33.788a7.265,7.265,0,0,1,7.271,7.271V32.761a7.265,7.265,0,0,1-7.271,7.271H7.271A7.265,7.265,0,0,1,0,32.761V7.271A7.265,7.265,0,0,1,7.271,0Z" fill="#300"/>
      </g>
    </g>
  </g>
  <g id="Outlined_Mnemonics_Logos" transform="translate(8.484 8.879)">
    <g id="Ai">
      <path id="Path_404" data-name="Path 404" d="M61,73.672H54.639l-1.3,4.02a.3.3,0,0,1-.325.239H49.8c-.188,0-.24-.1-.188-.308l5.509-15.859c.051-.171.1-.359.171-.565a5.975,5.975,0,0,0,.1-1.112.169.169,0,0,1,.137-.188h4.431c.137,0,.205.051.222.137l6.244,17.621c.051.188,0,.274-.171.274H62.68a.258.258,0,0,1-.274-.188ZM55.631,70.2h4.345c-.1-.359-.24-.787-.393-1.232-.154-.462-.308-.958-.462-1.471-.171-.53-.325-1.044-.5-1.574S58.3,64.9,58.163,64.4c-.137-.479-.257-.924-.376-1.334h-.034a21.005,21.005,0,0,1-.582,2.207c-.257.821-.513,1.677-.787,2.532-.24.872-.5,1.677-.753,2.4Z" transform="translate(-49.59 -58.531)" fill="#ff9a00"/>
      <path id="Path_405" data-name="Path 405" d="M159.6,56.194a2.117,2.117,0,0,1-1.523-.6,2.222,2.222,0,0,1-.582-1.574,2.013,2.013,0,0,1,.616-1.523,2.191,2.191,0,0,1,1.523-.6,2.048,2.048,0,0,1,1.557.6,2.352,2.352,0,0,1-.034,3.1A2.012,2.012,0,0,1,159.6,56.194Zm-1.916,14.85V57.871c0-.171.068-.24.222-.24h3.387c.154,0,.222.086.222.24V71.044c0,.188-.068.274-.222.274H157.94A.239.239,0,0,1,157.683,71.044Z" transform="translate(-139.034 -51.9)" fill="#ff9a00"/>
    </g>
  </g>
</svg>
