<svg id="Protopie_logo" data-name="Protopie logo" xmlns="http://www.w3.org/2000/svg" width="144.179" height="29.736" viewBox="0 0 144.179 29.736">
  <path id="Path_406" data-name="Path 406" d="M37.2,17a6.433,6.433,0,0,1,4.7,1.878,6.495,6.495,0,0,1,.012,9.209,6.432,6.432,0,0,1-4.7,1.877h-3.4v6H30V17Zm0,9.426a2.669,2.669,0,0,0,2.015-.863,3.134,3.134,0,0,0,0-4.186,2.689,2.689,0,0,0-2.015-.829H33.8v5.874ZM49.748,24.4a3.719,3.719,0,0,1,1.645-1.99,5.01,5.01,0,0,1,2.554-.655v4.113a4.2,4.2,0,0,0-2.913.634,3.169,3.169,0,0,0-1.295,2.848v6.6H46.175v-14.2H49.74l.008,2.647Zm17.543,9.511a7.113,7.113,0,1,1,1.119-8.576A7.109,7.109,0,0,1,67.291,33.906Zm-7.652-2.381a3.492,3.492,0,0,0,2.589,1.048,3.538,3.538,0,0,0,2.589-1.048,3.915,3.915,0,0,0,0-5.334,3.54,3.54,0,0,0-2.589-1.049,3.492,3.492,0,0,0-2.589,1.049,3.952,3.952,0,0,0,0,5.334Zm20.034-6.353H76.547v6.041a1.362,1.362,0,0,0,.359,1.049,1.65,1.65,0,0,0,1.049.371,15.356,15.356,0,0,0,1.726,0v3.232Q76,36.3,74.5,35.175T73,31.222V25.181H70.579V21.749h2.4V19.371L76.547,18.3v3.452h3.124v3.422ZM93.02,33.906a7.11,7.11,0,1,1,1.115-8.57A7.109,7.109,0,0,1,93.02,33.906Zm-7.651-2.381a3.491,3.491,0,0,0,2.589,1.048,3.538,3.538,0,0,0,2.589-1.048,3.915,3.915,0,0,0,0-5.334,3.54,3.54,0,0,0-2.589-1.049,3.492,3.492,0,0,0-2.589,1.049A3.952,3.952,0,0,0,85.369,31.524ZM104.672,17a6.433,6.433,0,0,1,4.7,1.878,6.23,6.23,0,0,1,1.9,4.6,6.227,6.227,0,0,1-1.907,4.613,6.429,6.429,0,0,1-4.7,1.9h-3.4v5.982H97.456V17Zm0,9.426a2.669,2.669,0,0,0,2.016-.863,3.134,3.134,0,0,0,0-4.186,2.686,2.686,0,0,0-2.016-.812h-3.4v5.856l3.4,0Zm10.734-4.678a2.4,2.4,0,0,1-2.357-2.357,2.314,2.314,0,0,1,.688-1.673A2.24,2.24,0,0,1,115.4,17a2.275,2.275,0,0,1,1.683.717,2.311,2.311,0,0,1,.7,1.669,2.263,2.263,0,0,1-.7,1.653,2.3,2.3,0,0,1-1.683.708ZM113.658,35.99V24.115h3.564V35.969l-3.565.022Zm19.687-3.215c-.117.181-.212.31-.212.31a6.873,6.873,0,0,1-6,2.883,7.489,7.489,0,0,1-5.475-2.02,6.827,6.827,0,0,1-2.063-5.092,6.9,6.9,0,0,1,4.442-6.634,7.085,7.085,0,0,1,2.825-.473,6.632,6.632,0,0,1,5,2.042,7.025,7.025,0,0,1,1.967,5.066,7.959,7.959,0,0,1-.138,1.429H123.333q.716,2.532,3.884,2.532a3.764,3.764,0,0,0,2.832-1.057l3.3,1.014ZM123.255,27.6h7.017a3.254,3.254,0,0,0-1.251-2.047,3.641,3.641,0,0,0-2.158-.673,3.789,3.789,0,0,0-2.365.712,3.408,3.408,0,0,0-1.243,2V27.6Z" transform="translate(10.348 -11.431)" fill="#fff"/>
  <path id="Path_407" data-name="Path 407" d="M14.949,34.665l.08,4.85a2.785,2.785,0,0,1-1.94-.785l-.378-.452-9.2-10.941L.377,23.614a.045.045,0,0,1-.019-.02L.31,23.536.3,23.524a1.03,1.03,0,0,1-.146-.266,1.063,1.063,0,0,1-.076-.364v-.077a1.088,1.088,0,0,1,.3-.723,1.107,1.107,0,0,1,.813-.355H4.28L14.946,34.668h0Z" transform="translate(-0.078 -9.779)" fill="#fcd1ca" fill-rule="evenodd"/>
  <path id="Path_408" data-name="Path 408" d="M14.946,30.436v6.01L.356,19.039a1.083,1.083,0,0,1-.278-.7v-.076a1.087,1.087,0,0,1,.3-.72,1.094,1.094,0,0,1,.813-.357H3.956l10.99,13.253Z" transform="translate(-0.078 -11.366)" fill="#ff9d8d" fill-rule="evenodd"/>
  <path id="Path_409" data-name="Path 409" d="M1.184,12.87a1.089,1.089,0,0,0-.809.355,1.081,1.081,0,0,0-.3.715v.074a1.041,1.041,0,0,0,.076.367.107.107,0,0,0,.009.027,1.038,1.038,0,0,0,.2.316l.015.019,14.563,17.2V42.606a2.762,2.762,0,0,0,1.928-.779h0L29.535,26.8a.511.511,0,0,0,.043-.051,1.032,1.032,0,0,0,.162-.28,1.059,1.059,0,0,0,.074-.4V13.976a1.113,1.113,0,0,0-1.108-1.106Z" transform="translate(-0.078 -12.87)" fill="#ff6661" fill-rule="evenodd"/>
</svg>
