<svg id="notion" xmlns="http://www.w3.org/2000/svg" width="40" height="40" viewBox="0 0 40 40">
  <path id="Path_411" data-name="Path 411" d="M33.561,9.087l-21.25,1.564A2.335,2.335,0,0,0,10,13.255V36.481a5,5,0,0,0,1.267,3.127l5,6.476c.821,1.043,1.566,1.266,3.133,1.191l24.678-1.489c2.087-.148,2.684-1.117,2.684-2.754V16.9c0-.847-.335-1.091-1.323-1.812l-.169-.123L38.482,10.2C36.842,9.013,36.171,8.864,33.561,9.087ZM19.955,16.475c-2.015.136-2.473.167-3.617-.762l-2.91-2.308c-.3-.3-.148-.671.6-.744l20.43-1.489a4.213,4.213,0,0,1,3.28.968l3.5,2.531c.149.074.521.52.074.52l-21.1,1.266Zm-2.35,26.334V20.626c0-.968.3-1.415,1.192-1.49l24.231-1.414c.822-.074,1.194.447,1.194,1.414V41.171c0,.968-.15,1.788-1.492,1.862L19.543,44.374C18.2,44.447,17.605,44,17.605,42.809ZM40.5,21.816c.149.671,0,1.341-.672,1.416l-1.117.222V39.832a5.824,5.824,0,0,1-2.61.819c-1.193,0-1.492-.373-2.386-1.489L26.4,27.7V38.79l2.312.521s0,1.339-1.866,1.339l-5.143.3a.958.958,0,0,1,.522-1.191l1.342-.372V24.721l-1.864-.149a1.393,1.393,0,0,1,1.267-1.713l5.518-.372L36.1,34.1V23.827L34.157,23.6a1.26,1.26,0,0,1,1.192-1.489Z" transform="translate(-8.795 -7.946)" fill="#fff" fill-rule="evenodd"/>
  <rect id="Area" width="40" height="40" fill="#fff" opacity="0"/>
</svg>
